HIERARCHY
ROOT hip
{
  OFFSET 0 0 0
  CHANNELS 6 Xposition Yposition Zposition Zrotation Yrotation Xrotation
  JOINT abdomen
  {
    OFFSET 0 20.6881 -0.73152
    CHANNELS 3 Zrotation Xrotation Yrotation
    JOINT chest
    {
      OFFSET 0 11.7043 -0.48768
      CHANNELS 3 Zrotation Xrotation Yrotation
      JOINT neck
      {
        OFFSET 0 22.1894 -2.19456
        CHANNELS 3 Zrotation Xrotation Yrotation
        JOINT head
        {
          OFFSET -0.24384 7.07133 1.2192
          CHANNELS 3 Zrotation Xrotation Yrotation
          JOINT leftEye
          {
            OFFSET 4.14528 8.04674 8.04672
            CHANNELS 3 Zrotation Xrotation Yrotation
            End Site
            {
              OFFSET 1 0 0
            }
          }
          JOINT rightEye
          {
            OFFSET -3.6576 8.04674 8.04672
            CHANNELS 3 Zrotation Xrotation Yrotation
            End Site
            {
              OFFSET 1 0 0
            }
          }
        }
      }
      JOINT rCollar
      {
        OFFSET -2.68224 19.2634 -4.8768
        CHANNELS 3 Zrotation Xrotation Yrotation
        JOINT rShldr
        {
          OFFSET -8.77824 -1.95073 1.46304
          CHANNELS 3 Zrotation Xrotation Yrotation
          JOINT rForeArm
          {
            OFFSET -28.1742 -1.7115 0.48768
            CHANNELS 3 Zrotation Xrotation Yrotation
            JOINT rHand
            {
              OFFSET -22.5879 0.773209 7.07136
              CHANNELS 3 Zrotation Xrotation Yrotation
              JOINT rThumb1
              {
                OFFSET -1.2192 -0.487915 3.41376
                CHANNELS 3 Zrotation Xrotation Yrotation
                JOINT rThumb2
                {
                  OFFSET -3.37035 -0.52449 3.41376
                  CHANNELS 3 Zrotation Xrotation Yrotation
                  End Site
                  {
                    OFFSET -1.78271 -1.18214 1.43049
                  }
                }
              }
              JOINT rIndex1
              {
                OFFSET -7.75947 0.938293 5.60832
                CHANNELS 3 Zrotation Xrotation Yrotation
                JOINT rIndex2
                {
                  OFFSET -2.54057 -0.884171 1.56538
                  CHANNELS 3 Zrotation Xrotation Yrotation
                  End Site
                  {
                    OFFSET -1.62519 -0.234802 1.16502
                  }
                }
              }
              JOINT rMid1
              {
                OFFSET -8.24714 1.18213 3.41376
                CHANNELS 3 Zrotation Xrotation Yrotation
                JOINT rMid2
                {
                  OFFSET -3.10165 -0.590103 1.0647
                  CHANNELS 3 Zrotation Xrotation Yrotation
                  End Site
                  {
                    OFFSET -2.48547 -0.328903 0.83742
                  }
                }
              }
              JOINT rRing1
              {
                OFFSET -8.82822 0.546677 1.51678
                CHANNELS 3 Zrotation Xrotation Yrotation
                JOINT rRing2
                {
                  OFFSET -2.60934 -0.819778 -0.0198488
                  CHANNELS 3 Zrotation Xrotation Yrotation
                  End Site
                  {
                    OFFSET -2.33842 -0.294052 0.168128
                  }
                }
              }
              JOINT rPinky1
              {
                OFFSET -8.27202 -0.0477905 -0.4584
                CHANNELS 3 Zrotation Xrotation Yrotation
                JOINT rPinky2
                {
                  OFFSET -1.82734 -0.647385 -0.700984
                  CHANNELS 3 Zrotation Xrotation Yrotation
                  End Site
                  {
                    OFFSET -1.69225 -0.51767 -0.607171
                  }
                }
              }
            }
          }
        }
      }
      JOINT lCollar
      {
        OFFSET 2.68224 19.2634 -4.8768
        CHANNELS 3 Zrotation Xrotation Yrotation
        JOINT lShldr
        {
          OFFSET 8.77824 -1.95073 1.46304
          CHANNELS 3 Zrotation Xrotation Yrotation
          JOINT lForeArm
          {
            OFFSET 28.1742 -1.7115 0.48768
            CHANNELS 3 Zrotation Xrotation Yrotation
            JOINT lHand
            {
              OFFSET 22.5879 0.773209 7.07136
              CHANNELS 3 Zrotation Xrotation Yrotation
              JOINT lThumb1
              {
                OFFSET 1.2192 -0.487915 3.41376
                CHANNELS 3 Zrotation Xrotation Yrotation
                JOINT lThumb2
                {
                  OFFSET 3.37035 -0.52449 3.41376
                  CHANNELS 3 Zrotation Xrotation Yrotation
                  End Site
                  {
                    OFFSET 1.78271 -1.18214 1.43049
                  }
                }
              }
              JOINT lIndex1
              {
                OFFSET 7.75947 0.938293 5.60832
                CHANNELS 3 Zrotation Xrotation Yrotation
                JOINT lIndex2
                {
                  OFFSET 2.54057 -0.884171 1.56538
                  CHANNELS 3 Zrotation Xrotation Yrotation
                  End Site
                  {
                    OFFSET 1.62519 -0.234802 1.16502
                  }
                }
              }
              JOINT lMid1
              {
                OFFSET 8.24714 1.18213 3.41376
                CHANNELS 3 Zrotation Xrotation Yrotation
                JOINT lMid2
                {
                  OFFSET 3.10165 -0.590103 1.0647
                  CHANNELS 3 Zrotation Xrotation Yrotation
                  End Site
                  {
                    OFFSET 2.48547 -0.328903 0.83742
                  }
                }
              }
              JOINT lRing1
              {
                OFFSET 8.82822 0.546677 1.51678
                CHANNELS 3 Zrotation Xrotation Yrotation
                JOINT lRing2
                {
                  OFFSET 2.60934 -0.819778 -0.0198488
                  CHANNELS 3 Zrotation Xrotation Yrotation
                  End Site
                  {
                    OFFSET 2.33842 -0.294052 0.168128
                  }
                }
              }
              JOINT lPinky1
              {
                OFFSET 8.27202 -0.0477905 -0.4584
                CHANNELS 3 Zrotation Xrotation Yrotation
                JOINT lPinky2
                {
                  OFFSET 1.82734 -0.647385 -0.700984
                  CHANNELS 3 Zrotation Xrotation Yrotation
                  End Site
                  {
                    OFFSET 1.69225 -0.51767 -0.607171
                  }
                }
              }
            }
          }
        }
      }
    }
  }
  JOINT rButtock
  {
    OFFSET -8.77824 4.35084 1.2192
    CHANNELS 3 Zrotation Xrotation Yrotation
    JOINT rThigh
    {
      OFFSET 0 -1.70687 -2.19456
      CHANNELS 3 Zrotation Xrotation Yrotation
      JOINT rShin
      {
        OFFSET 0 -36.8199 0.73152
        CHANNELS 3 Zrotation Xrotation Yrotation
        JOINT rFoot
        {
          OFFSET 0.73152 -45.1104 -5.12064
          CHANNELS 3 Zrotation Xrotation Yrotation
          End Site
          {
            OFFSET -1.1221 -3.69964 12.103
          }
        }
      }
    }
  }
  JOINT lButtock
  {
    OFFSET 8.77824 4.35084 1.2192
    CHANNELS 3 Zrotation Xrotation Yrotation
    JOINT lThigh
    {
      OFFSET 0 -1.70687 -2.19456
      CHANNELS 3 Zrotation Xrotation Yrotation
      JOINT lShin
      {
        OFFSET 0 -36.8199 0.73152
        CHANNELS 3 Zrotation Xrotation Yrotation
        JOINT lFoot
        {
          OFFSET -0.73152 -45.1104 -5.12064
          CHANNELS 3 Zrotation Xrotation Yrotation
          End Site
          {
            OFFSET 1.1221 -3.69964 12.103
          }
        }
      }
    }
  }
}
MOTION
Frames:	4
Frame Time:	0.03333
-0.1026293018907009 63.462183578796555 -9.007307539003525 -160.50823974609375 -66.15900421142578 161.33958435058594 0.9459144473075867 12.097825050354004 13.479352951049805 0.12151267379522324 -13.43094539642334 3.8209118843078613 -0.07495567947626114 13.401671409606934 9.653592109680176 5.988308906555176 -20.16537857055664 20.354007720947266 0.006784496828913689 -0.07450244575738907 0.2049795687198639 -0.005599213298410177 0.0682189017534256 -0.13671697676181793 0.04539184644818306 -0.014226438477635384 -0.2776448726654053 45.595645904541016 83.71661376953125 18.254465103149414 -26.50027084350586 -45.75589370727539 94.65672302246094 -50.91305160522461 -80.77120208740234 -58.650901794433594 -0.045047659426927567 -0.002005416201427579 0.01571129448711872 -0.025111647322773933 -0.09321995824575424 0.13320361077785492 0.07772523164749146 -0.16068628430366516 -0.18788540363311768 7.853723049163818 5.400307655334473 0.28528842329978943 0.05597866326570511 -0.005854267627000809 -0.05077653005719185 2.788715362548828 1.023337483406067 0.047452401369810104 0.09713927656412125 -0.042760513722896576 0.10786905139684677 10.29580020904541 0.6444385647773743 0.13561919331550598 0.02707228809595108 0.039803314954042435 0.020151568576693535 2.36283016204834 -0.6556850671768188 -0.31753575801849365 0.14129742980003357 0.04316675290465355 -0.006314327474683523 -67.16673278808594 7.620580196380615 -35.88705062866211 28.63642120361328 -35.6357307434082 -76.41185760498047 0.18734508752822876 20.029478073120117 -2.8307719230651855 0.08872503787279129 -0.17017649114131927 0.06889889389276505 0.17364172637462616 0.09164754301309586 -0.115439772605896 0.03183021396398544 -0.18618141114711761 -0.0346987321972847 -7.77525520324707 5.638895511627197 -0.5248797535896301 -0.08714021742343903 -0.05717373639345169 0.07187686860561371 -2.9233033657073975 0.8706184029579163 -0.1307152807712555 0.023230131715536118 0.0647396594285965 0.16665056347846985 -10.302275657653809 0.7219698429107666 -0.22233790159225464 0.03579486161470413 -0.13808052241802216 0.06606161594390869 -2.1337692737579346 -0.7044616937637329 0.3318884074687958 0.02721848525106907 -0.035017672926187515 -0.06202981621026993 -14.75389289855957 -36.60585403442383 -25.635210037231445 -8.024795532226562 83.67850494384766 9.540586471557617 -19.11297035217285 -24.044017791748047 -29.879892349243164 0.036022499203681946 -0.09538737684488297 -0.06902894377708435 75.48521423339844 -41.613101959228516 71.30501556396484 2.1391193866729736 72.06359100341797 -1.984790325164795 -0.7227615118026733 3.694078207015991 -3.767462968826294
-0.029092657161140404 63.357845609035444 -9.221743569151897 -160.42674255371094 -66.16970825195312 161.21363830566406 1.023322343826294 12.074193954467773 13.467470169067383 0.11577899754047394 -13.446684837341309 3.8237407207489014 -0.06827454268932343 13.406461715698242 9.661094665527344 5.981861114501953 -20.121082305908203 20.381563186645508 0.010446164757013321 -0.06602956354618073 0.20014029741287231 -0.0038862114306539297 0.06248493120074272 -0.12838764488697052 0.043979376554489136 -0.016145670786499977 -0.2741502821445465 45.709468841552734 83.84603881835938 18.161270141601562 -26.466609954833984 -45.80130386352539 94.76805877685547 -51.34992599487305 -80.81422424316406 -59.103721618652344 -0.051544707268476486 -0.004956991411745548 0.013709001243114471 -0.022667966783046722 -0.09405095130205154 0.1380813717842102 0.08021397888660431 -0.15987496078014374 -0.18721717596054077 7.845675945281982 5.395737171173096 0.28831911087036133 0.047269925475120544 -0.01292501948773861 -0.0547548308968544 2.7879557609558105 1.0230714082717896 0.05379103869199753 0.09082788974046707 -0.044508107006549835 0.11269108951091766 10.293024063110352 0.6429575681686401 0.1396530270576477 0.03678109124302864 0.042916618287563324 0.013112889602780342 2.3642430305480957 -0.6590675711631775 -0.31432074308395386 0.14660850167274475 0.04065892472863197 0.0035076977219432592 -67.15279388427734 7.533542633056641 -35.94746398925781 28.63396453857422 -35.61627960205078 -76.37828826904297 0.20874004065990448 20.185035705566406 -2.8528337478637695 0.086520254611969 -0.17509429156780243 0.07488009333610535 0.17724217474460602 0.09395932406187057 -0.11435260623693466 0.02777152881026268 -0.1866811364889145 -0.04235733300447464 -7.772833347320557 5.645147323608398 -0.5230371952056885 -0.08890784531831741 -0.06033451110124588 0.06705756485462189 -2.9284327030181885 0.8709709048271179 -0.1359958052635193 0.01470127608627081 0.06581493467092514 0.17001309990882874 -10.293519020080566 0.7195782661437988 -0.2245536893606186 0.03839127719402313 -0.1431780606508255 0.06920411437749863 -2.138120651245117 -0.6981281042098999 0.32755401730537415 0.02590903639793396 -0.033878475427627563 -0.05606820434331894 -14.722675323486328 -36.57562255859375 -25.69627571105957 -8.224679946899414 83.78760528564453 9.755075454711914 -19.282581329345703 -24.143617630004883 -30.111509323120117 0.04077129065990448 -0.09906751662492752 -0.07020024955272675 75.85295867919922 -41.60801696777344 71.5944595336914 2.184020519256592 72.29509735107422 -2.021552324295044 -0.7721002101898193 3.707458972930908 -3.978302240371704
0.04620585620916603 63.228297411047805 -9.42871985878785 -160.31228637695312 -66.23192596435547 161.45111083984375 1.0734171867370605 12.052000999450684 13.43630313873291 0.13505037128925323 -13.460137367248535 3.8149759769439697 -0.08784111589193344 13.415334701538086 9.597674369812012 5.995787620544434 -20.06245994567871 20.275049209594727 0.011199086904525757 -0.0547601543366909 0.19373534619808197 0.0031428919173777103 0.05481540784239769 -0.13228322565555573 0.03573138266801834 -0.01679222844541073 -0.2681359052658081 45.55177688598633 83.79385375976562 18.28596305847168 -26.451282501220703 -45.73649978637695 94.7195816040039 -50.712135314941406 -80.75819396972656 -58.42237091064453 -0.0531085766851902 -0.0040071988478302956 0.010073757730424404 -0.01462819054722786 -0.09399731457233429 0.1426597535610199 0.0797610953450203 -0.15419219434261322 -0.18979907035827637 7.839310169219971 5.391845226287842 0.27748486399650574 0.041514862328767776 -0.03261951357126236 -0.0596902072429657 2.7934770584106445 1.0274461507797241 0.05991622433066368 0.08052635192871094 -0.04804733023047447 0.11071328073740005 10.287680625915527 0.6369965672492981 0.1315677911043167 0.05317225679755211 0.04928157478570938 0.015183141455054283 2.3673667907714844 -0.6601423025131226 -0.31144681572914124 0.14965610206127167 0.03212589770555496 0.0041020032949745655 -67.12753295898438 7.591782569885254 -35.85366439819336 28.631229400634766 -35.630523681640625 -76.38278198242188 0.23139280080795288 20.070722579956055 -2.828080415725708 0.07973280549049377 -0.17872710525989532 0.08284232020378113 0.19015054404735565 0.09602921456098557 -0.11145217716693878 0.007280212361365557 -0.19508203864097595 -0.04306402802467346 -7.7645673751831055 5.650561809539795 -0.5172080397605896 -0.08125677704811096 -0.06454874575138092 0.0616166815161705 -2.921508550643921 0.8760512471199036 -0.13984490931034088 0.0037959616165608168 0.06850026547908783 0.1670449823141098 -10.294248580932617 0.7140551805496216 -0.22205106914043427 0.034337446093559265 -0.14524608850479126 0.0694955587387085 -2.1408638954162598 -0.6917318105697632 0.33019140362739563 0.029270358383655548 -0.03673994913697243 -0.050516676157712936 -14.80748462677002 -36.63467025756836 -25.826398849487305 -8.415284156799316 83.91526794433594 9.961929321289062 -19.418336868286133 -24.258792877197266 -30.274770736694336 0.044569581747055054 -0.10389956086874008 -0.0696910172700882 76.11483764648438 -41.634422302246094 71.80243682861328 2.232581377029419 72.59574890136719 -2.0711607933044434 -0.7748983502388 3.5675580501556396 -4.099799156188965
0.12506652667504567 63.10412457193698 -9.62362197479681 -160.18917846679688 -66.27079772949219 161.7976837158203 1.1086571216583252 12.015738487243652 13.430027961730957 0.1517542451620102 -13.466514587402344 3.8142740726470947 -0.09640321880578995 13.428833961486816 9.571990013122559 5.999122619628906 -20.00080680847168 20.2237606048584 0.00900396890938282 -0.0477546751499176 0.18576370179653168 0.00541969807818532 0.05069330707192421 -0.12832389771938324 0.03291259706020355 -0.0208887979388237 -0.2558020055294037 45.961849212646484 83.7318344116211 17.840600967407227 -26.447961807250977 -45.704410552978516 94.67992401123047 -50.185237884521484 -80.70543670654297 -57.87596893310547 -0.05371864512562752 -0.009269962087273598 0.005225509405136108 -0.007110012695193291 -0.09726165235042572 0.14558608829975128 0.0750468298792839 -0.15217818319797516 -0.19160664081573486 7.8418450355529785 5.389595031738281 0.2637420892715454 0.03630286827683449 -0.030955005437135696 -0.06994669884443283 2.7994179725646973 1.0279520750045776 0.06098863109946251 0.0787227526307106 -0.047446463257074356 0.10773687809705734 10.282281875610352 0.634541928768158 0.12362106889486313 0.06729134917259216 0.053132764995098114 0.016367485746741295 2.369919538497925 -0.6609383225440979 -0.30948182940483093 0.15111662447452545 0.026870714500546455 0.008318407461047173 -67.13250732421875 7.597722053527832 -35.79351806640625 28.630970001220703 -35.63261413574219 -76.36611938476562 0.256325364112854 19.96625328063965 -2.806250810623169 0.07663493603467941 -0.17847862839698792 0.08376958966255188 0.1889084130525589 0.09169813245534897 -0.11125438660383224 -0.007338853552937508 -0.20778419077396393 -0.038190510123968124 -7.760261535644531 5.647552013397217 -0.5158402919769287 -0.07920323312282562 -0.071932353079319 0.0614159069955349 -2.9179563522338867 0.8816772699356079 -0.14515992999076843 -0.004847519565373659 0.0732496902346611 0.1553168147802353 -10.285686492919922 0.7106814384460449 -0.21934647858142853 0.032218389213085175 -0.15525922179222107 0.06965138018131256 -2.147632598876953 -0.6901201009750366 0.3292335867881775 0.029628342017531395 -0.040572598576545715 -0.049460843205451965 -14.912479400634766 -36.67179489135742 -25.99159049987793 -8.741954803466797 84.09424591064453 10.313384056091309 -19.579856872558594 -24.416688919067383 -30.46581268310547 0.04461802542209625 -0.10656507313251495 -0.06955017149448395 76.4146728515625 -41.662471771240234 72.0933837890625 2.274280548095703 72.9231948852539 -2.1111767292022705 -0.7672474384307861 3.429766893386841 -4.241188049316406
